<svg width="4429" height="1432" xmlns="http://www.w3.org/2000/svg" xmlns:xlink="http://www.w3.org/1999/xlink" xml:space="preserve" overflow="hidden"><g transform="translate(23 -28)"><path d="M0.499836 146.5 550 146.5 687.5 284 550 421.5 0.499836 421.5 138 284Z" stroke="#FFFFFF" stroke-width="6.875" stroke-miterlimit="8" fill="#0F9ED5" fill-rule="evenodd"/><text fill="#FFFFFF" font-family="Aptos,Aptos_MSFontService,sans-serif" font-weight="400" font-size="83" transform="matrix(1 0 0 1 311.46 305)">IO</text><path d="M619.5 146.5 1169 146.5 1306.5 284 1169 421.5 619.5 421.5 757 284Z" stroke="#FFFFFF" stroke-width="6.875" stroke-miterlimit="8" fill="#1461CC" fill-rule="evenodd"/><text fill="#FFFFFF" font-family="Aptos,Aptos_MSFontService,sans-serif" font-weight="400" font-size="83" transform="matrix(1 0 0 1 880.893 305)">Filter</text><path d="M1238.5 146.5 1788 146.5 1925.5 284 1788 421.5 1238.5 421.5 1376 284Z" stroke="#FFFFFF" stroke-width="6.875" stroke-miterlimit="8" fill="#192CC3" fill-rule="evenodd"/><text fill="#FFFFFF" font-family="Aptos,Aptos_MSFontService,sans-serif" font-weight="400" font-size="83" transform="matrix(1 0 0 1 1462.93 305)">Impute</text><path d="M1856.5 146.5 2407 146.5 2544.5 284 2407 421.5 1856.5 421.5 1994 284Z" stroke="#FFFFFF" stroke-width="6.875" stroke-miterlimit="8" fill="#3C1EBA" fill-rule="evenodd"/><text fill="#FFFFFF" font-family="Aptos,Aptos_MSFontService,sans-serif" font-weight="400" font-size="83" transform="matrix(1 0 0 1 2026.1 305)">Normalize</text><path d="M2475.5 146.5 3025 146.5 3162.5 284 3025 421.5 2475.5 421.5 2613 284Z" stroke="#FFFFFF" stroke-width="6.875" stroke-miterlimit="8" fill="#6A22B1" fill-rule="evenodd"/><text fill="#FFFFFF" font-family="Aptos,Aptos_MSFontService,sans-serif" font-weight="400" font-size="83" transform="matrix(1 0 0 1 2667.79 243)">Collapse</text><text fill="#FFFFFF" font-family="Aptos,Aptos_MSFontService,sans-serif" font-weight="400" font-size="83" transform="matrix(1 0 0 1 2639.07 369)">Replicates</text><path d="M3094.5 146.5 3644 146.5 3781.5 284 3644 421.5 3094.5 421.5 3232 284Z" stroke="#FFFFFF" stroke-width="6.875" stroke-miterlimit="8" fill="#8F27A8" fill-rule="evenodd"/><text fill="#FFFFFF" font-family="Aptos,Aptos_MSFontService,sans-serif" font-weight="400" font-size="83" transform="matrix(1 0 0 1 3267.35 305)">Transform</text><path d="M3713.5 146.5 4263 146.5 4400.5 284 4263 421.5 3713.5 421.5 3851 284Z" stroke="#FFFFFF" stroke-width="6.875" stroke-miterlimit="8" fill="#A02B93" fill-rule="evenodd"/><text fill="#FFFFFF" font-family="Aptos,Aptos_MSFontService,sans-serif" font-weight="400" font-size="83" transform="matrix(1 0 0 1 3908.3 260)">Center &amp; </text><text fill="#FFFFFF" font-family="Aptos,Aptos_MSFontService,sans-serif" font-weight="400" font-size="83" transform="matrix(1 0 0 1 3965.75 351)">Scale</text><text font-family="Consolas,Consolas_MSFontService,sans-serif" font-weight="400" font-size="46" transform="matrix(1 0 0 1 9.74012 599)">read_featuretable</text><text font-family="Consolas,Consolas_MSFontService,sans-serif" font-weight="400" font-size="46" transform="matrix(1 0 0 1 642.225 599)">filter_global_mv</text><text font-family="Consolas,Consolas_MSFontService,sans-serif" font-weight="400" font-size="46" transform="matrix(1 0 0 1 642.225 654)">filter_grouped_mv</text><text font-family="Consolas,Consolas_MSFontService,sans-serif" font-weight="400" font-size="46" transform="matrix(1 0 0 1 642.225 709)">filter_cv</text><text font-family="Consolas,Consolas_MSFontService,sans-serif" font-weight="400" font-size="46" transform="matrix(1 0 0 1 642.225 764)">filter_blank</text><text font-family="Consolas,Consolas_MSFontService,sans-serif" font-weight="400" font-size="46" transform="matrix(1 0 0 1 1251.45 595)">impute_global_lowest</text><text font-family="Consolas,Consolas_MSFontService,sans-serif" font-weight="400" font-size="46" transform="matrix(1 0 0 1 1251.45 650)">impute_user_value</text><text font-family="Consolas,Consolas_MSFontService,sans-serif" font-weight="400" font-size="46" transform="matrix(1 0 0 1 1251.45 705)">impute_mean</text><text font-family="Consolas,Consolas_MSFontService,sans-serif" font-weight="400" font-size="46" transform="matrix(1 0 0 1 1251.45 760)">impute_median</text><text font-family="Consolas,Consolas_MSFontService,sans-serif" font-weight="400" font-size="46" transform="matrix(1 0 0 1 1251.45 815)">impute_min</text><text font-family="Consolas,Consolas_MSFontService,sans-serif" font-weight="400" font-size="46" transform="matrix(1 0 0 1 1251.45 870)">impute_lod</text><text font-family="Consolas,Consolas_MSFontService,sans-serif" font-weight="400" font-size="46" transform="matrix(1 0 0 1 1251.45 925)">impute_knn</text><text font-family="Consolas,Consolas_MSFontService,sans-serif" font-weight="400" font-size="46" transform="matrix(1 0 0 1 1251.45 980)">impute_rf</text><text fill="#E97132" font-family="Consolas,Consolas_MSFontService,sans-serif" font-weight="400" font-size="46" transform="matrix(1 0 0 1 1251.45 1035)">impute_svd</text><text fill="#E97132" font-family="Consolas,Consolas_MSFontService,sans-serif" font-weight="400" font-size="46" transform="matrix(1 0 0 1 1251.45 1090)">impute_qrilc</text><text font-family="Consolas,Consolas_MSFontService,sans-serif" font-weight="400" font-size="46" transform="matrix(1 0 0 1 1869.87 595)">normalize_median</text><text font-family="Consolas,Consolas_MSFontService,sans-serif" font-weight="400" font-size="46" transform="matrix(1 0 0 1 1869.87 650)">normalize_sum</text><text font-family="Consolas,Consolas_MSFontService,sans-serif" font-weight="400" font-size="46" transform="matrix(1 0 0 1 1869.87 705)">normalize_quantile_all</text><text font-family="Consolas,Consolas_MSFontService,sans-serif" font-weight="400" font-size="46" transform="matrix(1 0 0 1 1869.87 760)">normalize_quantile_group</text><text fill="#E97132" font-family="Consolas,Consolas_MSFontService,sans-serif" font-weight="400" font-size="46" transform="matrix(1 0 0 1 1869.87 815)">normalize_quantile_batch</text><text fill="#E97132" font-family="Consolas,Consolas_MSFontService,sans-serif" font-weight="400" font-size="46" transform="matrix(1 0 0 1 1869.87 870)">normalize_quantile_smooth</text><text fill="#E97132" font-family="Consolas,Consolas_MSFontService,sans-serif" font-weight="400" font-size="46" transform="matrix(1 0 0 1 1869.87 925)">normalize_ref</text><text fill="#E97132" font-family="Consolas,Consolas_MSFontService,sans-serif" font-weight="400" font-size="46" transform="matrix(1 0 0 1 1869.87 980)">normalize_factor</text><text fill="#E97132" font-family="Consolas,Consolas_MSFontService,sans-serif" font-weight="400" font-size="46" transform="matrix(1 0 0 1 1869.87 1035)">normalize_cyclic_loess</text><text fill="#0F9ED5" font-family="Consolas,Consolas_MSFontService,sans-serif" font-weight="400" font-size="46" transform="matrix(1 0 0 1 1869.87 1090)">normalize_cyclic_loess_f</text><text fill="#0F9ED5" font-family="Consolas,Consolas_MSFontService,sans-serif" font-weight="400" font-size="46" transform="matrix(1 0 0 1 1869.87 1145)">normalize_contrast</text><text fill="#0F9ED5" font-family="Consolas,Consolas_MSFontService,sans-serif" font-weight="400" font-size="46" transform="matrix(1 0 0 1 1869.87 1200)">normailze_cubic_splines</text><text fill="#0F9ED5" font-family="Consolas,Consolas_MSFontService,sans-serif" font-weight="400" font-size="46" transform="matrix(1 0 0 1 1869.87 1255)">normalize_lbs</text><text fill="#0F9ED5" font-family="Consolas,Consolas_MSFontService,sans-serif" font-weight="400" font-size="46" transform="matrix(1 0 0 1 1869.87 1310)">normalize_mstus</text><text fill="#0F9ED5" font-family="Consolas,Consolas_MSFontService,sans-serif" font-weight="400" font-size="46" transform="matrix(1 0 0 1 1869.87 1365)">normalize_nlb</text><text fill="#0F9ED5" font-family="Consolas,Consolas_MSFontService,sans-serif" font-weight="400" font-size="46" transform="matrix(1 0 0 1 1869.87 1420)">normalize_pqn</text><text fill="#E97132" font-family="Consolas,Consolas_MSFontService,sans-serif" font-weight="400" font-size="46" transform="matrix(1 0 0 1 2528.41 599)">collapse_mean</text><text fill="#E97132" font-family="Consolas,Consolas_MSFontService,sans-serif" font-weight="400" font-size="46" transform="matrix(1 0 0 1 2528.41 654)">collapse_median</text><text fill="#E97132" font-family="Consolas,Consolas_MSFontService,sans-serif" font-weight="400" font-size="46" transform="matrix(1 0 0 1 2528.41 709)">collapse_max</text><text fill="#E97132" font-family="Consolas,Consolas_MSFontService,sans-serif" font-weight="400" font-size="46" transform="matrix(1 0 0 1 2528.41 764)">collapse_mean</text><text fill="#E97132" font-family="Consolas,Consolas_MSFontService,sans-serif" font-weight="400" font-size="46" transform="matrix(1 0 0 1 3120.94 599)">transform_log</text><text fill="#E97132" font-family="Consolas,Consolas_MSFontService,sans-serif" font-weight="400" font-size="46" transform="matrix(1 0 0 1 3120.94 654)">transform_powe</text><text fill="#E97132" font-family="Consolas,Consolas_MSFontService,sans-serif" font-weight="400" font-size="46" transform="matrix(1 0 0 1 3473.85 654)">r</text><text fill="#E97132" font-family="Consolas,Consolas_MSFontService,sans-serif" font-weight="400" font-size="46" transform="matrix(1 0 0 1 3737.28 595)">scale_zero</text><text fill="#E97132" font-family="Consolas,Consolas_MSFontService,sans-serif" font-weight="400" font-size="46" transform="matrix(1 0 0 1 3737.28 650)">scale_auto</text><text fill="#E97132" font-family="Consolas,Consolas_MSFontService,sans-serif" font-weight="400" font-size="46" transform="matrix(1 0 0 1 3737.28 705)">scale_range</text><text fill="#E97132" font-family="Consolas,Consolas_MSFontService,sans-serif" font-weight="400" font-size="46" transform="matrix(1 0 0 1 3737.28 760)">scale_paret</text><text fill="#E97132" font-family="Consolas,Consolas_MSFontService,sans-serif" font-weight="400" font-size="46" transform="matrix(1 0 0 1 4014.57 760)">o</text><text fill="#E97132" font-family="Consolas,Consolas_MSFontService,sans-serif" font-weight="400" font-size="46" transform="matrix(1 0 0 1 3737.28 815)">scale_vast_</text><text fill="#E97132" font-family="Consolas,Consolas_MSFontService,sans-serif" font-weight="400" font-size="46" transform="matrix(1 0 0 1 4014.57 815)">u</text><text fill="#E97132" font-family="Consolas,Consolas_MSFontService,sans-serif" font-weight="400" font-size="46" transform="matrix(1 0 0 1 3737.28 870)">scale_vast_s</text><text fill="#E97132" font-family="Consolas,Consolas_MSFontService,sans-serif" font-weight="400" font-size="46" transform="matrix(1 0 0 1 3737.28 925)">scale_level</text><rect x="26.5" y="1190.5" width="954" height="233" stroke="#000000" stroke-width="3.4375" stroke-linejoin="round" stroke-miterlimit="10" fill="none"/><text font-family="Consolas,Consolas_MSFontService,sans-serif" font-weight="400" font-size="55" transform="matrix(1 0 0 1 59.4336 1258)">Currently implemented</text><text fill="#E97132" font-family="Consolas,Consolas_MSFontService,sans-serif" font-weight="400" font-size="55" transform="matrix(1 0 0 1 59.4336 1324)">Planned to implement</text><text fill="#0F9ED5" font-family="Consolas,Consolas_MSFontService,sans-serif" font-weight="400" font-size="55" transform="matrix(1 0 0 1 59.4336 1390)">Considered</text><text fill="#0F9ED5" font-family="Consolas,Consolas_MSFontService,sans-serif" font-weight="400" font-size="55" transform="matrix(1 0 0 1 393.444 1390)">for</text><text fill="#0F9ED5" font-family="Consolas,Consolas_MSFontService,sans-serif" font-weight="400" font-size="55" transform="matrix(1 0 0 1 514.902 1390)">implementation</text></g></svg>